<svg xmlns="http://www.w3.org/2000/svg" width="32" height="32" viewBox="0 0 32 32" fill="none">
<path d="M15.0824 26.8549H5C3.89543 26.8549 3 25.9595 3 24.8549V16.6314M26.8549 14.7725V6.40784M26.8549 6.40784V5C26.8549 3.89543 25.9595 3 24.8549 3H5C3.89543 3 3 3.89543 3 5V6.40784M26.8549 6.40784H14.9275M3 6.40784H14.9275M3 6.40784V16.6314M14.9275 6.40784V16.6314H3M9.19608 8.88627V13.2235M11.6745 11.0549H6.71765M18.4902 11.0549H23.4471M7.33726 19.4196L11.0549 23.1373M11.0549 19.4196L7.33726 23.1373" stroke="#9F82B1" stroke-width="1.7" stroke-linecap="round"/>
<circle cx="23.1373" cy="23.1372" r="6.19608" fill="#845D9C"/>
<path d="M23.4468 19.4197V20.3491M23.4468 20.3491C24.3319 20.3491 24.8482 20.6589 24.9958 21.2785M23.4468 20.3491C22.119 20.3491 21.8977 21.2583 21.8977 21.7432C21.8977 23.6672 24.9958 22.6563 24.9958 24.5314C24.9958 25.0164 24.7745 25.9256 23.4468 25.9256M23.4468 25.9256V26.855M23.4468 25.9256C22.5616 25.9256 22.0453 25.6158 21.8977 24.9961" stroke="white" stroke-width="1.7" stroke-linecap="round"/>
</svg>